<?xml version="1.0" encoding="UTF-8"?>
<svg width="13px" height="17px" viewBox="0 0 13 17" version="1.1" xmlns="http://www.w3.org/2000/svg" xmlns:xlink="http://www.w3.org/1999/xlink">
    <!-- Generator: Sketch 50 (54983) - http://www.bohemiancoding.com/sketch -->
    <title>Combined Shape</title>
    <desc>Created with Sketch.</desc>
    <defs></defs>
    <g id="学生" stroke="none" stroke-width="1" fill="none" fill-rule="evenodd">
        <g id="a04单词朗读-正在录音" transform="translate(-358.000000, -481.000000)" fill="#FE861D" fill-rule="nonzero">
            <g id="Group-13" transform="translate(358.000000, 480.000000)">
                <g id="声音">
                    <g id="麦克风" transform="translate(0.000000, 1.000000)">
                        <path d="M6.03530378,12.5862069 C3.89140058,12.5862069 2.13957307,10.7668275 2.13957307,8.54025362 L2.13957307,4.04595328 C2.13957307,1.82154535 3.89140058,0 6.03530378,0 C8.17712146,0 9.93103448,1.82154535 9.93103448,4.04595328 L9.93103448,8.54025362 C9.93103448,10.7646616 8.17712146,12.5862069 6.03530378,12.5862069 Z M12.137931,8.57445845 C12.137931,11.7270297 9.66084203,14.3287225 6.54255531,14.568403 L6.54255531,16.1959107 L8.49928023,16.1959107 C8.72340708,16.1959107 8.9046575,16.377604 8.9046575,16.5979553 C8.9046575,16.8202397 8.72340708,17 8.49928023,17 L3.6444976,17 C3.42037074,17 3.23912032,16.8202397 3.23912032,16.5979553 C3.23912032,16.377604 3.42037074,16.1959107 3.6444976,16.1959107 L5.66358824,16.1959107 L5.66358824,14.5703359 C2.51216973,14.361582 -8.61533067e-14,11.7482917 -8.61533067e-14,8.57445845 C-8.61533067e-14,8.35217414 0.181250415,8.17241379 0.405377273,8.17241379 C0.62950413,8.17241379 0.810754546,8.35217414 0.810754546,8.57445845 C0.810754546,11.450624 3.16895887,13.7894415 6.06896552,13.7894415 C8.96897216,13.7894415 11.3271765,11.450624 11.3271765,8.57445845 C11.3271765,8.35217414 11.5084269,8.17241379 11.7325538,8.17241379 C11.9566806,8.17241379 12.137931,8.35217414 12.137931,8.57445845 Z" id="Combined-Shape"></path>
                    </g>
                </g>
            </g>
        </g>
    </g>
</svg>