<?xml version="1.0" encoding="UTF-8"?>
<svg width="20px" height="15px" viewBox="0 0 20 15" version="1.1" xmlns="http://www.w3.org/2000/svg" xmlns:xlink="http://www.w3.org/1999/xlink">
    <!-- Generator: Sketch 49 (51002) - http://www.bohemiancoding.com/sketch -->
    <title>年级</title>
    <desc>Created with Sketch.</desc>
    <defs></defs>
    <g id="学生" stroke="none" stroke-width="1" fill="none" fill-rule="evenodd">
        <g id="a01登录-输入" transform="translate(-395.000000, -307.000000)" fill="#CBD3D6" fill-rule="nonzero">
            <g id="Group-10" transform="translate(393.000000, 306.000000)">
                <g id="年级" transform="translate(2.000000, 1.000000)">
                    <path d="M19.1541157,4.71683758 L19.1541157,8.02503981 L19.8505403,8.72165955 L18.3984491,10.232817 L16.9284059,8.7662276 L17.9350702,7.85086537 L17.9350702,5.23908774 C13.6636399,7.00030633 12.2943236,7.54770895 11.3470183,7.97506662 C10.3996936,8.40240477 9.71755258,8.40025833 8.77805257,8.0462311 C7.83843549,7.69212583 3.36580507,6.05979164 1.14493453,4.99690993 C-0.337050775,4.28780178 -0.432470116,3.83806252 1.1703992,3.23621819 C3.26220972,2.4414863 6.71964858,1.16883815 8.55232436,0.4742673 C9.63713886,0.0354163814 10.2108452,-0.20416617 11.2066212,0.296287788 C12.9846601,1.03048986 17.0474947,2.55509191 19.0677505,3.38924038 C20.8263933,4.15669287 19.6441106,4.40915411 19.1541157,4.71683758 Z M11.5530187,9.28455561 C12.5859868,8.85834922 13.978797,8.15361201 15.4974475,7.5030043 L15.4974475,12.7266766 C15.4974475,12.7266766 13.5334091,14.8160285 10.0805949,14.8160285 C6.36222607,14.8160285 4.3536782,12.7266766 4.3536782,12.7266766 L4.3536782,7.85086537 C5.52581408,8.32841088 6.84203511,8.73929944 8.43491369,9.28455561 C9.41664018,9.63384113 10.6624187,9.75462758 11.5530187,9.28455561 Z" id="Shape"></path>
                </g>
            </g>
        </g>
    </g>
</svg>