<svg xmlns="http://www.w3.org/2000/svg" width="12" height="13" viewBox="0 0 12 13">
  <path fill="#7DAAD8" d="M9.43970084,5.86128374 C9.84231848,6.1485034 10.2000623,6.47460433 10.5116859,6.83958651 C10.8245559,7.20331447 11.0925522,7.59714405 11.3156747,8.01982101 C11.5387971,8.44249798 11.7095668,8.89025964 11.8254908,9.36185174 C11.9414148,9.83344385 12,10.3125614 12,10.79795 C12,11.6345243 11.8416952,12.4184208 11.5238392,13.1521479 C11.2059832,13.8846207 10.7771892,14.523026 10.2362107,15.0673637 C9.69523216,15.6117014 9.06076659,16.043158 8.33281396,16.3629878 C7.60486133,16.6828175 6.82455594,16.8421053 5.99314428,16.8421053 C5.17045809,16.8421053 4.39513867,16.6828175 3.66718604,16.3629878 C2.93923341,16.043158 2.30227485,15.6117014 1.75631038,15.0673637 C1.2115924,14.523026 0.781551885,13.8846207 0.468681832,13.1521479 C0.155811779,12.419675 0,11.6345243 0,10.79795 C0,10.321341 0.0560922406,9.8535116 0.167030227,9.39446184 C0.277968214,8.93541207 0.437519476,8.50019276 0.643191025,8.08629543 C0.848862574,7.67239811 1.1031474,7.28609393 1.40729199,6.92612868 C1.71143658,6.56616343 2.05048302,6.24257097 2.42567778,5.95535131 C2.62262387,5.81111437 2.83452789,5.75718229 3.06263634,5.79355509 C3.29074478,5.82992788 3.47647242,5.94155474 3.61857276,6.13094412 C3.7619196,6.3203335 3.81551885,6.53104487 3.77937052,6.76558669 C3.74322219,6.99887427 3.6322842,7.18826366 3.44406357,7.3325006 C2.88064818,7.74639793 2.44936117,8.25436283 2.15020256,8.85639531 C1.85104394,9.45842779 1.70146463,10.1068669 1.70146463,10.7992043 C1.70146463,11.3924571 1.81364911,11.9530999 2.03677158,12.478624 C2.25989405,13.0041482 2.56653163,13.463198 2.95543783,13.8545191 C3.34434403,14.2458402 3.80056092,14.5556361 4.32284201,14.785161 C4.84512309,15.0146859 5.40230601,15.1288212 5.99189779,15.1288212 C6.58148956,15.1288212 7.13867248,15.0146859 7.66095357,14.785161 C8.18323465,14.5556361 8.63945154,14.2458402 9.02835774,13.8545191 C9.41726395,13.463198 9.72514802,13.0041482 9.95325647,12.478624 C10.1813649,11.9530999 10.2947959,11.3924571 10.2947959,10.7992043 C10.2947959,10.0980873 10.1339981,9.43459733 9.81240262,8.80998864 C9.49080711,8.18537995 9.03957619,7.66988964 8.45870988,7.26602618 C8.26176379,7.13056888 8.14334684,6.94619643 8.10345902,6.71290885 C8.06357121,6.47962126 8.10969149,6.26263872 8.24431287,6.06572393 C8.37893425,5.87633455 8.5621689,5.76219923 8.79401683,5.72206373 C9.02835774,5.67941976 9.24275475,5.72582643 9.43970084,5.86128374 Z M5.99439078,10.8393398 C5.76254285,10.8393398 5.56310377,10.7565603 5.39732004,10.5897471 C5.2315363,10.422934 5.14926768,10.2235107 5.14926768,9.98896891 L5.14926768,4.86291322 C5.14926768,4.62962563 5.2315363,4.42643967 5.39732004,4.2558638 C5.56310377,4.08528793 5.76129635,4 5.99439078,4 C6.23621066,4 6.43938922,4.08528793 6.60392646,4.2558638 C6.76971019,4.42643967 6.85197881,4.62962563 6.85197881,4.86291322 L6.85197881,9.98896891 C6.85197881,10.2222565 6.76971019,10.422934 6.60392646,10.5897471 C6.43938922,10.7553061 6.23496416,10.8393398 5.99439078,10.8393398 Z" transform="translate(0 -4)"/>
</svg>
